<svg xmlns="http://www.w3.org/2000/svg" viewBox="0 0 64 64" fill="none">
  <path
    d="M20 14h18c8 0 14 6 14 14v8c0 10-8 18-18 18h-8c-10 0-18-8-18-18v-8c0-8 6-14 12-14z"
    stroke="#3889FF"
    stroke-width="4"
    stroke-linejoin="round"
  />
  <path
    d="M22 20v24c0 4 3 8 8 8h2V36h-8V28h8v-8h-2c-4 0-8 4-8 8z"
    fill="#3889FF"
  />
  <path
    d="M32 28h10c4 0 8 3 8 8v4c0 6-5 10-10 10h-8v-8h8c2 0 4-2 4-4v-4c0-2-2-4-4-4H32v-2z"
    fill="#3889FF"
  />
  <rect x="38" y="20" width="6" height="6" transform="rotate(45 41 23)" fill="#F472B6" />
</svg>
